Coordinates
version=1
nRows=13
nColumns=38
inDegrees=no

Units are S.I. units (second, meters, Newtons, ...)
If the header above contains a line with 'inDegrees', this indicates whether rotational values are in degrees (yes) or radians (no).

endheader
time	pelvis_tilt	pelvis_list	pelvis_rotation	pelvis_tx	pelvis_ty	pelvis_tz	hip_flexion_r	hip_adduction_r	hip_rotation_r	knee_angle_r	ankle_angle_r	subtalar_angle_r	mtp_angle_r	hip_flexion_l	hip_adduction_l	hip_rotation_l	knee_angle_l	ankle_angle_l	subtalar_angle_l	mtp_angle_l	lumbar_extension	lumbar_bending	lumbar_rotation	arm_flex_r	arm_add_r	arm_rot_r	elbow_flex_r	pro_sup_r	wrist_flex_r	wrist_dev_r	arm_flex_l	arm_add_l	arm_rot_l	elbow_flex_l	pro_sup_l	wrist_flex_l	wrist_dev_l
0.55	0.0776234	0.0188701	0.123314	0.77592	0.960102	-0.388874	0.549596	-0.108759	-0.0859232	-2.30776	0.0284302	-0.0715466	-0.00596628	-0.1427	0.0595582	0.18634	-0.643669	0.413701	0.1	-0.0304246	-0.391397	-0.0216654	-0.211639	-0.526333	-0.445874	-0.028371	1.66406	1.48438	0.0999996	0.0799179	0.192358	-0.611286	-0.195445	2.41427	1.46062	0.041587	-0.0936917
0.558333	0.0729969	-0.00596401	0.125886	0.778489	0.964126	-0.389726	0.607986	-0.0930285	-0.0989745	-2.23331	0.0475618	-0.0715466	-0.00596628	-0.211522	0.0165929	0.172245	-0.574114	0.342255	0.1	-0.0304246	-0.376392	0.0117188	-0.230116	-0.563298	-0.461391	-0.0566226	1.6929	1.46285	0.0999996	0.0799179	0.187563	-0.584496	-0.15643	2.4235	1.453	0.041587	-0.0936917
0.566667	0.0668375	-0.0288888	0.127598	0.781239	0.968172	-0.390489	0.659664	-0.0802631	-0.114391	-2.14736	0.066262	-0.0715466	-0.00596628	-0.273959	-0.0236663	0.149673	-0.509502	0.256081	0.1	-0.0304246	-0.360167	0.043116	-0.247691	-0.59987	-0.477388	-0.0858028	1.72379	1.44333	0.0999996	0.0799179	0.176557	-0.562939	-0.115503	2.43095	1.45587	0.041587	-0.0936917
0.575	0.0596111	-0.0489019	0.127722	0.783972	0.972155	-0.391095	0.703873	-0.070306	-0.130454	-2.05092	0.0843973	-0.0715466	-0.00596628	-0.329106	-0.059169	0.119856	-0.453645	0.1597	0.1	-0.0304246	-0.34393	0.07118	-0.263736	-0.634829	-0.493133	-0.115308	1.75426	1.42628	0.0999996	0.0799179	0.161067	-0.54694	-0.0732288	2.43649	1.46899	0.041587	-0.0936917
0.583333	0.0518124	-0.0653187	0.125605	0.786527	0.976	-0.391504	0.739939	-0.0625524	-0.145559	-1.94471	0.10181	-0.0715466	-0.00596628	-0.376385	-0.0881173	0.0854113	-0.410083	0.0588336	0.1	-0.0304246	-0.328804	0.0949182	-0.277646	-0.66698	-0.508063	-0.14439	1.78241	1.41171	0.0999996	0.0799179	0.142439	-0.536397	-0.0305544	2.4403	1.49113	0.041587	-0.0936917
0.591667	0.0438524	-0.0777534	0.120785	0.788786	0.979631	-0.391715	0.76737	-0.0561207	-0.158322	-1.82929	0.118229	-0.0715466	-0.00596628	-0.415467	-0.109008	0.0502396	-0.381835	-0.0401244	0.1	-0.0304246	-0.315648	0.11372	-0.28897	-0.695247	-0.521822	-0.172252	1.80694	1.39934	0.0999996	0.0799179	0.121562	-0.53083	0.0113577	2.44269	1.52024	0.041587	-0.0936917
0.6	0.0360237	-0.0860871	0.113089	0.790681	0.98298	-0.391764	0.785891	-0.0500851	-0.167656	-1.70521	0.133189	-0.0715466	-0.00596628	-0.446253	-0.120676	0.0190633	-0.371178	-0.130833	0.1	-0.0304246	-0.305005	0.12733	-0.297505	-0.718752	-0.534258	-0.198164	1.82716	1.38877	0.0999996	0.0799179	0.0988894	-0.529466	0.0513277	2.44407	1.55373	0.041587	-0.0936917
0.608333	0.0285611	-0.0904137	0.102667	0.792191	0.985981	-0.391716	0.795455	-0.0437157	-0.172847	-1.57332	0.146009	-0.0715466	-0.00596628	-0.468874	-0.122364	-0.00339561	-0.379493	-0.207798	0.1	-0.0304246	-0.297126	0.135803	-0.303326	-0.736887	-0.545384	-0.221585	1.84289	1.37965	0.0999996	0.0799179	0.0745433	-0.531328	0.0883417	2.44481	1.58878	0.041587	-0.0936917
0.616667	0.021724	-0.0909812	0.0899632	0.793343	0.988572	-0.391641	0.796226	-0.0366496	-0.173612	-1.43497	0.155881	-0.0715466	-0.00596628	-0.483723	-0.113842	-0.0134684	-0.407194	-0.267115	0.1	-0.0304246	-0.292086	0.139461	-0.306729	-0.749357	-0.555311	-0.242244	1.8544	1.37171	0.0999996	0.0799179	0.0484556	-0.535339	0.121667	2.44514	1.62267	0.041587	-0.0936917
0.625	0.0158515	-0.0881595	0.0756372	0.79419	0.990683	-0.391599	0.788604	-0.0289488	-0.170125	-1.29232	0.162049	-0.0715466	-0.00596628	-0.491457	-0.0955438	-0.00951872	-0.453753	-0.306998	0.1	-0.0304246	-0.28988	0.138847	-0.308143	-0.756195	-0.564201	-0.260186	1.86225	1.36476	0.0999996	0.0799179	0.0205065	-0.540422	0.150896	2.44509	1.65319	0.041587	-0.0936917
0.633333	0.0113622	-0.0824278	0.0604493	0.794789	0.992245	-0.391612	0.773291	-0.021028	-0.162958	-1.14839	0.164021	-0.0715466	-0.00596628	-0.492946	-0.0686847	0.00747051	-0.517824	-0.327926	0.1	-0.0304246	-0.290476	0.134669	-0.308004	-0.757742	-0.572215	-0.27574	1.86724	1.35874	0.0999996	0.0799179	-0.00936757	-0.5456	0.175921	2.44454	1.67868	0.041587	-0.0936917
0.641667	0.00870404	-0.074372	0.0451363	0.795192	0.993195	-0.391666	0.751369	-0.0134809	-0.152957	-1.00713	0.161741	-0.0715466	-0.00596628	-0.489184	-0.0353111	0.033912	-0.597424	-0.332393	0.1	-0.0304246	-0.293828	0.127748	-0.306655	-0.754579	-0.579508	-0.289438	1.87027	1.35367	0.0999996	0.0799179	-0.0411136	-0.550073	0.196862	2.44314	1.6981	0.041587	-0.0936917
0.65	0.00825323	-0.06471	0.0303165	0.795445	0.993502	-0.391708	0.724328	-0.00686311	-0.141064	-0.873169	0.155631	-0.0715466	-0.00596628	-0.481166	0.00178257	0.0643111	-0.69015	-0.324273	0.1	-0.0304246	-0.299842	0.118956	-0.304277	-0.747428	-0.586224	-0.301877	1.87225	1.3496	0.0999996	0.0799179	-0.0745452	-0.553269	0.213962	2.44044	1.71099	0.041587	-0.0936917
